<mxfile host="app.diagrams.net" modified="2023-01-23T16:43:03.183Z" agent="5.0 (X11; Linux x86_64) AppleWebKit/537.36 (KHTML, like Gecko) Chrome/109.0.0.0 Safari/537.36" etag="Quq4jE3aKWzZEkSyENu2" version="20.8.10" type="github">
  <diagram name="PÃ¡gina-1" id="czXhI2XSOKD8URqdnq5L">
    <mxGraphModel dx="680" dy="583" grid="1" gridSize="10" guides="1" tooltips="1" connect="1" arrows="1" fold="1" page="1" pageScale="1" pageWidth="827" pageHeight="1169" math="0" shadow="0">
      <root>
        <mxCell id="0" />
        <mxCell id="1" parent="0" />
        <mxCell id="g68eZhoNwrhH9-CdULWT-1" value="Users" style="swimlane;childLayout=stackLayout;horizontal=1;startSize=30;horizontalStack=0;rounded=1;fontSize=14;fontStyle=0;strokeWidth=2;resizeParent=0;resizeLast=1;shadow=0;dashed=0;align=center;" vertex="1" parent="1">
          <mxGeometry x="220" y="190" width="160" height="180" as="geometry" />
        </mxCell>
        <mxCell id="g68eZhoNwrhH9-CdULWT-2" value="+id&#xa;+username&#xa;+password&#xa;+active&#xa;+createdAt&#xa;+updateAt&#xa;+img&#xa;+" style="align=left;strokeColor=none;fillColor=none;spacingLeft=4;fontSize=12;verticalAlign=top;resizable=0;rotatable=0;part=1;" vertex="1" parent="g68eZhoNwrhH9-CdULWT-1">
          <mxGeometry y="30" width="160" height="150" as="geometry" />
        </mxCell>
      </root>
    </mxGraphModel>
  </diagram>
</mxfile>
